<svg width="32" height="32" viewBox="0 0 32 32" fill="none" xmlns="http://www.w3.org/2000/svg">
<path fill-rule="evenodd" clip-rule="evenodd" d="M4 16.0001C4 9.37261 9.37259 4 16 4C22.6274 4 28 9.37261 28 16.0001C28 22.6275 22.6274 28.0001 16 28.0001C9.37259 28.0001 4 22.6275 4 16.0001ZM16 5.78885C10.3605 5.78885 5.78885 10.3606 5.78885 16.0001C5.78885 18.609 6.76728 20.9895 8.37724 22.7943C10.0756 20.4209 12.8567 18.8718 16.0007 18.8718C19.1443 18.8718 21.9251 20.4205 23.6235 22.7936C25.2331 20.9887 26.2112 18.6086 26.2112 16.0001C26.2112 10.3606 21.6394 5.78885 16 5.78885ZM22.3056 24.0322C20.9453 21.9978 18.6286 20.6607 16.0007 20.6607C13.3725 20.6607 11.0556 21.9982 9.69526 24.033C11.4313 25.3974 13.6206 26.2112 16 26.2112C18.3798 26.2112 20.5695 25.3972 22.3056 24.0322ZM11.5752 14.1265C11.5752 11.6826 13.5564 9.70142 16.0002 9.70142C18.4441 9.70142 20.4253 11.6826 20.4253 14.1265C20.4253 16.5704 18.4441 18.5515 16.0002 18.5515C13.5564 18.5515 11.5752 16.5704 11.5752 14.1265ZM16.0002 11.4903C14.5443 11.4903 13.364 12.6705 13.364 14.1265C13.364 15.5824 14.5443 16.7627 16.0002 16.7627C17.4562 16.7627 18.6364 15.5824 18.6364 14.1265C18.6364 12.6705 17.4562 11.4903 16.0002 11.4903Z" fill="#454545"/>
</svg>
