<svg width="32" height="32" viewBox="0 0 32 32" fill="none" xmlns="http://www.w3.org/2000/svg">
<path fill-rule="evenodd" clip-rule="evenodd" d="M10.5455 9.98046C10.5455 8.06984 11.0739 6.64094 11.9489 5.69877C12.8131 4.76818 14.1363 4.18181 16.0031 4.18181C17.8708 4.18181 19.1921 4.76702 20.0543 5.69552C20.9274 6.63568 21.4545 8.06279 21.4545 9.97444V12.9564H10.5455V9.98046ZM8.36364 12.9564V9.98046C8.36364 7.67966 9.00376 5.66379 10.3502 4.21404C11.7073 2.7527 13.6584 2 16.0031 2C18.3473 2 20.2971 2.75061 21.6531 4.21088C22.9984 5.6595 23.6364 7.67417 23.6364 9.97444V12.9564H25.8182C27.0232 12.9564 28 13.9333 28 15.1382V28.2292C28 29.4342 27.0232 30.411 25.8182 30.411H6.18182C4.97684 30.411 4 29.4342 4 28.2292V15.1382C4 13.9333 4.97684 12.9564 6.18182 12.9564H8.36364ZM6.18182 15.1382H25.8182V28.2292H6.18182V15.1382Z" fill="#454545"/>
</svg>
