<svg width="32" height="32" viewBox="0 0 32 32" fill="none" xmlns="http://www.w3.org/2000/svg">
<path fill-rule="evenodd" clip-rule="evenodd" d="M10.4615 3C10.9713 3 11.3846 3.41328 11.3846 3.92308V4.84615H20.6154V3.92308C20.6154 3.41328 21.0287 3 21.5385 3C22.0482 3 22.4615 3.41328 22.4615 3.92308V4.84615H25.2308C26.7601 4.84615 28 6.08597 28 7.61538V24.2308C28 25.7601 26.7601 27 25.2308 27H6.76923C5.23982 27 4 25.7601 4 24.2308V7.61538C4 6.08597 5.23982 4.84615 6.76923 4.84615H9.53846V3.92308C9.53846 3.41328 9.95174 3 10.4615 3ZM20.6154 6.69231V7.61538C20.6154 8.12518 21.0287 8.53846 21.5385 8.53846C22.0482 8.53846 22.4615 8.12518 22.4615 7.61538V6.69231H25.2308C25.7405 6.69231 26.1538 7.10559 26.1538 7.61538V10.3846H5.84615V7.61538C5.84615 7.10559 6.25943 6.69231 6.76923 6.69231H9.53846V7.61538C9.53846 8.12518 9.95174 8.53846 10.4615 8.53846C10.9713 8.53846 11.3846 8.12518 11.3846 7.61538V6.69231H20.6154ZM5.84615 12.2308V24.2308C5.84615 24.7405 6.25943 25.1538 6.76923 25.1538H25.2308C25.7405 25.1538 26.1538 24.7405 26.1538 24.2308V12.2308H5.84615ZM15.0769 15C15.0769 14.4902 15.4902 14.0769 16 14.0769C16.5098 14.0769 16.9231 14.4902 16.9231 15C16.9231 15.5098 16.5098 15.9231 16 15.9231C15.4902 15.9231 15.0769 15.5098 15.0769 15ZM19.6923 14.0769C19.1825 14.0769 18.7692 14.4902 18.7692 15C18.7692 15.5098 19.1825 15.9231 19.6923 15.9231C20.2021 15.9231 20.6154 15.5098 20.6154 15C20.6154 14.4902 20.2021 14.0769 19.6923 14.0769ZM22.4615 15C22.4615 14.4902 22.8749 14.0769 23.3846 14.0769C23.8943 14.0769 24.3077 14.4902 24.3077 15C24.3077 15.5098 23.8943 15.9231 23.3846 15.9231C22.8749 15.9231 22.4615 15.5098 22.4615 15ZM23.3846 17.7692C22.8749 17.7692 22.4615 18.1825 22.4615 18.6923C22.4615 19.2021 22.8749 19.6154 23.3846 19.6154C23.8943 19.6154 24.3077 19.2021 24.3077 18.6923C24.3077 18.1825 23.8943 17.7692 23.3846 17.7692ZM18.7692 18.6923C18.7692 18.1825 19.1825 17.7692 19.6923 17.7692C20.2021 17.7692 20.6154 18.1825 20.6154 18.6923C20.6154 19.2021 20.2021 19.6154 19.6923 19.6154C19.1825 19.6154 18.7692 19.2021 18.7692 18.6923ZM16 17.7692C15.4902 17.7692 15.0769 18.1825 15.0769 18.6923C15.0769 19.2021 15.4902 19.6154 16 19.6154C16.5098 19.6154 16.9231 19.2021 16.9231 18.6923C16.9231 18.1825 16.5098 17.7692 16 17.7692ZM11.3846 18.6923C11.3846 18.1825 11.7979 17.7692 12.3077 17.7692C12.8175 17.7692 13.2308 18.1825 13.2308 18.6923C13.2308 19.2021 12.8175 19.6154 12.3077 19.6154C11.7979 19.6154 11.3846 19.2021 11.3846 18.6923ZM8.61538 17.7692C8.10559 17.7692 7.69231 18.1825 7.69231 18.6923C7.69231 19.2021 8.10559 19.6154 8.61538 19.6154C9.12518 19.6154 9.53846 19.2021 9.53846 18.6923C9.53846 18.1825 9.12518 17.7692 8.61538 17.7692ZM7.69231 22.3846C7.69231 21.8749 8.10559 21.4615 8.61538 21.4615C9.12518 21.4615 9.53846 21.8749 9.53846 22.3846C9.53846 22.8943 9.12518 23.3077 8.61538 23.3077C8.10559 23.3077 7.69231 22.8943 7.69231 22.3846ZM12.3077 21.4615C11.7979 21.4615 11.3846 21.8749 11.3846 22.3846C11.3846 22.8943 11.7979 23.3077 12.3077 23.3077C12.8175 23.3077 13.2308 22.8943 13.2308 22.3846C13.2308 21.8749 12.8175 21.4615 12.3077 21.4615ZM15.0769 22.3846C15.0769 21.8749 15.4902 21.4615 16 21.4615C16.5098 21.4615 16.9231 21.8749 16.9231 22.3846C16.9231 22.8943 16.5098 23.3077 16 23.3077C15.4902 23.3077 15.0769 22.8943 15.0769 22.3846ZM19.6923 21.4615C19.1825 21.4615 18.7692 21.8749 18.7692 22.3846C18.7692 22.8943 19.1825 23.3077 19.6923 23.3077C20.2021 23.3077 20.6154 22.8943 20.6154 22.3846C20.6154 21.8749 20.2021 21.4615 19.6923 21.4615Z" fill="#454545"/>
</svg>
