<svg width="32" height="32" viewBox="0 0 32 32" fill="none" xmlns="http://www.w3.org/2000/svg">
<path fill-rule="evenodd" clip-rule="evenodd" d="M16 5.63636C10.2763 5.63636 5.63636 10.2763 5.63636 16C5.63636 21.7236 10.2763 26.3636 16 26.3636C21.7237 26.3636 26.3638 21.7236 26.3638 16C26.3638 10.2763 21.7237 5.63636 16 5.63636ZM4 16C4 9.37258 9.37259 4 16 4C22.6274 4 28.0001 9.37258 28.0001 16C28.0001 22.6274 22.6274 28 16 28C9.37259 28 4 22.6274 4 16Z" fill="#454545"/>
<path fill-rule="evenodd" clip-rule="evenodd" d="M26.909 16.7273H5.09082V15.2727H26.909V16.7273Z" fill="#454545"/>
<path fill-rule="evenodd" clip-rule="evenodd" d="M15.2725 26.9091V5.09092H16.7271V26.9091H15.2725ZM21.2272 16C21.2272 12.0495 19.8066 8.14143 17.0215 5.55739L17.8871 4.62439C20.9811 7.49489 22.5 11.7686 22.5 16C22.5 20.2314 20.9811 24.5051 17.8871 27.3757L17.0215 26.4426C19.8066 23.8586 21.2272 19.9505 21.2272 16ZM9.63574 16C9.63574 11.7748 11.1051 7.50325 14.1048 4.63126L14.985 5.55057C12.2876 8.13316 10.9085 12.0435 10.9085 16C10.9085 19.9566 12.2876 23.867 14.985 26.4495L14.1048 27.3688C11.1052 24.4968 9.63576 20.2253 9.63574 16Z" fill="#454545"/>
<path fill-rule="evenodd" clip-rule="evenodd" d="M16.0002 9.55994C19.9444 9.55994 23.9553 10.2893 26.6741 11.8081C26.981 11.9795 27.0908 12.3671 26.9193 12.674C26.7481 12.9808 26.3602 13.0906 26.0535 12.9192C23.5991 11.5482 19.8329 10.8327 16.0002 10.8327C12.1673 10.8327 8.40115 11.5482 5.94682 12.9192C5.63998 13.0906 5.25231 12.9808 5.08091 12.674C4.90953 12.3671 5.01931 11.9795 5.32615 11.8081C8.04504 10.2893 12.0559 9.55994 16.0002 9.55994ZM16.0002 22.0909C19.9444 22.0909 23.9553 21.3614 26.6741 19.8427C26.981 19.6713 27.0908 19.2836 26.9193 18.9768C26.7481 18.6699 26.3602 18.5602 26.0535 18.7315C23.5991 20.1025 19.8329 20.8181 16.0002 20.8181C12.1673 20.8181 8.40115 20.1025 5.94682 18.7316C5.63998 18.5602 5.25231 18.6699 5.08091 18.9768C4.90953 19.2836 5.01931 19.6713 5.32615 19.8427C8.04504 21.3614 12.0559 22.0909 16.0002 22.0909Z" fill="#454545"/>
</svg>
