<?xml version="1.0" standalone="no"?>
<!DOCTYPE svg PUBLIC "-//W3C//DTD SVG 20010904//EN"
 "http://www.w3.org/TR/2001/REC-SVG-20010904/DTD/svg10.dtd">
<svg version="1.0" xmlns="http://www.w3.org/2000/svg"
 width="512.000000pt" height="512.000000pt" viewBox="0 0 512.000000 512.000000"
 preserveAspectRatio="xMidYMid meet">
<metadata>
Created by potrace 1.14, written by Peter Selinger 2001-2017
</metadata>
<g transform="translate(0.000000,512.000000) scale(0.100000,-0.100000)"
fill="#000000" stroke="none">
<path d="M3980 5113 c-53 -9 -174 -44 -233 -69 -349 -147 -573 -534 -501 -867
7 -34 13 -64 14 -67 0 -3 -62 -4 -137 -3 -180 3 -304 -25 -440 -97 -338 -181
-513 -527 -439 -867 l6 -28 -147 -1 c-130 -1 -159 -5 -237 -28 -339 -102 -568
-350 -626 -679 -31 -173 32 -399 156 -564 13 -17 24 -34 24 -38 0 -3 -112
-118 -250 -256 -150 -150 -253 -261 -256 -276 -4 -14 -2 -34 5 -44 6 -10 11
-20 11 -23 0 -2 -30 -33 -67 -69 -43 -42 -71 -63 -77 -57 -6 6 -25 10 -42 10
-29 0 -65 -33 -364 -332 -188 -188 -341 -349 -353 -372 -28 -53 -30 -173 -4
-226 26 -53 77 -106 127 -132 62 -32 176 -32 237 0 26 14 291 271 728 708
l686 685 77 -48 c162 -103 272 -135 452 -129 133 4 213 25 330 88 202 108 351
290 419 513 31 102 40 176 37 298 l-2 108 25 -6 c275 -73 615 64 796 320 56
80 59 91 35 132 -20 34 -20 34 0 72 10 21 24 60 31 86 7 26 19 49 28 52 55 17
65 28 77 85 7 34 6 213 -2 243 -7 29 -9 29 75 10 39 -8 104 -12 160 -10 326
11 631 262 741 609 30 95 35 140 34 286 -1 261 -88 477 -279 688 -104 116
-318 234 -504 279 -62 14 -293 25 -351 16z"/>
</g>
</svg>
