<svg width="30" height="30" viewBox="0 0 30 30" fill="none" xmlns="http://www.w3.org/2000/svg">
<path d="M18.125 19.2625C18.225 19.375 18.225 19.6125 18.125 19.75C17.2125 20.625 15.5125 20.7 15 20.7C14.5125 20.7 12.8125 20.625 11.925 19.75C11.8 19.6125 11.8 19.375 11.925 19.2625C12.0625 19.1375 12.275 19.1375 12.4 19.2625C12.975 19.8375 14.1625 20 15 20C15.8625 20 17.075 19.8375 17.625 19.2625C17.7625 19.1375 17.975 19.1375 18.125 19.2625ZM13.4375 16.3C13.4375 15.5875 12.85 15 12.1375 15C11.425 15 10.8375 15.5875 10.8375 16.3C10.8375 17.0125 11.425 17.6125 12.1375 17.6C12.85 17.6 13.4375 17.0125 13.4375 16.3ZM17.8625 15C17.15 15 16.5625 15.625 16.5625 16.3125C16.5625 17 17.15 17.6125 17.8625 17.6125C18.575 17.6125 19.1625 17.0125 19.1625 16.3125C19.1625 15.625 18.575 15 17.8625 15ZM27.5 15C27.5 21.875 21.875 27.5 15 27.5C8.125 27.5 2.5 21.875 2.5 15C2.5 8.125 8.125 2.5 15 2.5C21.875 2.5 27.5 8.125 27.5 15ZM23.3375 15C23.3375 13.9875 22.5 13.175 21.525 13.175C21.025 13.175 20.575 13.375 20.25 13.6875C19 12.7875 17.2875 12.2125 15.375 12.1375L16.2125 8.225L18.925 8.8125C18.95 9.5 19.525 10.05 20.225 10.05C20.9375 10.05 21.525 9.4625 21.525 8.75C21.525 8.0375 20.9375 7.45 20.225 7.45C19.7125 7.45 19.2625 7.75 19.0625 8.1875L16.025 7.5375C15.9375 7.5 15.85 7.5375 15.7875 7.5875C15.7125 7.6375 15.675 7.7125 15.6625 7.8L14.7375 12.15C12.8 12.2125 11.05 12.7875 9.775 13.7C9.45 13.3875 9 13.2 8.5125 13.2C7.5 13.2 6.6875 14.0125 6.6875 15C6.6875 15.7625 7.1375 16.3875 7.7625 16.675C7.7375 16.875 7.725 17.025 7.725 17.225C7.725 20 10.9875 22.3125 15 22.3125C19.0375 22.3125 22.3125 20.0375 22.3125 17.225C22.3125 17.05 22.3 16.875 22.2625 16.675C22.8875 16.3875 23.3375 15.75 23.3375 15Z" fill="#545454"/>
</svg>
